<?xml version="1.0" encoding="UTF-8"?>
<svg xmlns="http://www.w3.org/2000/svg" xmlns:xlink="http://www.w3.org/1999/xlink" width="240pt" height="240pt" viewBox="0 0 240 240" version="1.1">
<g id="surface3044505">
<path style=" stroke:none;fill-rule:nonzero;fill:rgb(6.666667%,58.039218%,35.294119%);fill-opacity:1;" d="M 82.996094 207.101562 L 7.898438 132.003906 C 4.03125 128.136719 4.03125 121.863281 7.898438 117.996094 L 27.996094 97.898438 C 31.863281 94.03125 38.136719 94.03125 42.003906 97.898438 L 117.101562 172.996094 C 120.96875 176.863281 120.96875 183.136719 117.101562 187.003906 L 97.003906 207.101562 C 93.136719 210.964844 86.863281 210.964844 82.996094 207.101562 Z M 82.996094 207.101562 "/>
<path style=" stroke:none;fill-rule:nonzero;fill:rgb(6.666667%,58.039218%,35.294119%);fill-opacity:1;" d="M 62.898438 172.996094 L 197.996094 37.898438 C 201.863281 34.03125 208.136719 34.03125 212.003906 37.898438 L 232.101562 57.996094 C 235.96875 61.863281 235.96875 68.136719 232.101562 72.003906 L 97.003906 207.101562 C 93.136719 210.96875 86.863281 210.96875 82.996094 207.101562 L 62.898438 187.003906 C 59.035156 183.136719 59.035156 176.863281 62.898438 172.996094 Z M 62.898438 172.996094 "/>
</g>
</svg>
