<?xml version="1.0" encoding="UTF-8"?>
<svg xmlns="http://www.w3.org/2000/svg" xmlns:xlink="http://www.w3.org/1999/xlink" width="144pt" height="144pt" viewBox="0 0 144 144" version="1.1">
<g id="surface3042319">
<path style=" stroke:none;fill-rule:nonzero;fill:rgb(12.941177%,72.156864%,46.27451%);fill-opacity:1;" d="M 49.796875 124.261719 L 4.738281 79.203125 C 2.417969 76.882812 2.417969 73.117188 4.738281 70.796875 L 16.796875 58.738281 C 19.117188 56.417969 22.882812 56.417969 25.203125 58.738281 L 70.261719 103.796875 C 72.582031 106.117188 72.582031 109.882812 70.261719 112.203125 L 58.203125 124.261719 C 55.882812 126.578125 52.117188 126.578125 49.796875 124.261719 Z M 49.796875 124.261719 "/>
<path style=" stroke:none;fill-rule:nonzero;fill:rgb(12.941177%,72.156864%,46.27451%);fill-opacity:1;" d="M 37.738281 103.796875 L 118.796875 22.738281 C 121.117188 20.417969 124.882812 20.417969 127.203125 22.738281 L 139.261719 34.796875 C 141.582031 37.117188 141.582031 40.882812 139.261719 43.203125 L 58.203125 124.261719 C 55.882812 126.582031 52.117188 126.582031 49.796875 124.261719 L 37.738281 112.203125 C 35.421875 109.882812 35.421875 106.117188 37.738281 103.796875 Z M 37.738281 103.796875 "/>
</g>
</svg>
