<?xml version="1.0" encoding="UTF-8"?>
<svg xmlns="http://www.w3.org/2000/svg" xmlns:xlink="http://www.w3.org/1999/xlink" width="144pt" height="144pt" viewBox="0 0 144 144" version="1.1">
<g id="surface3490358">
<path style=" stroke:none;fill-rule:nonzero;fill:rgb(14.901961%,50.196081%,92.156863%);fill-opacity:1;" d="M 61.5 18 C 37.527344 18 18 37.527344 18 61.5 C 18 85.472656 37.527344 105 61.5 105 C 71.867188 105 81.402344 101.335938 88.886719 95.25 L 118.316406 124.683594 C 119.445312 125.855469 121.125 126.332031 122.699219 125.917969 C 124.277344 125.507812 125.507812 124.277344 125.917969 122.699219 C 126.332031 121.125 125.855469 119.445312 124.683594 118.316406 L 95.25 88.886719 C 101.335938 81.402344 105 71.867188 105 61.5 C 105 37.527344 85.472656 18 61.5 18 Z M 61.5 27 C 80.605469 27 96 42.394531 96 61.5 C 96 70.808594 92.328125 79.21875 86.371094 85.410156 C 86.007812 85.683594 85.683594 86.007812 85.410156 86.375 C 79.21875 92.328125 70.808594 96 61.5 96 C 42.394531 96 27 80.605469 27 61.5 C 27 42.394531 42.394531 27 61.5 27 Z M 61.5 27 "/>
</g>
</svg>
