<?xml version="1.0" encoding="UTF-8"?>
<svg xmlns="http://www.w3.org/2000/svg" xmlns:xlink="http://www.w3.org/1999/xlink" width="144pt" height="144pt" viewBox="0 0 144 144" version="1.1">
<g id="surface3490930">
<path style=" stroke:none;fill-rule:nonzero;fill:rgb(14.901961%,50.196081%,92.156863%);fill-opacity:1;" d="M 61.5 18 C 37.546875 18 18 37.546875 18 61.5 C 18 85.453125 37.546875 105 61.5 105 C 71.320312 105 80.367188 101.679688 87.660156 96.152344 L 115.757812 124.242188 C 117.261719 125.808594 119.496094 126.441406 121.601562 125.894531 C 123.703125 125.34375 125.34375 123.703125 125.894531 121.601562 C 126.441406 119.496094 125.808594 117.261719 124.242188 115.757812 L 96.152344 87.660156 C 101.679688 80.367188 105 71.320312 105 61.5 C 105 37.546875 85.453125 18 61.5 18 Z M 61.5 30 C 78.96875 30 93 44.03125 93 61.5 C 93 69.886719 89.742188 77.460938 84.445312 83.09375 C 83.929688 83.464844 83.476562 83.917969 83.101562 84.433594 C 77.472656 89.738281 69.894531 93 61.5 93 C 44.03125 93 30 78.96875 30 61.5 C 30 44.03125 44.03125 30 61.5 30 Z M 61.5 30 "/>
</g>
</svg>
