<?xml version="1.0" encoding="UTF-8"?>
<svg xmlns="http://www.w3.org/2000/svg" xmlns:xlink="http://www.w3.org/1999/xlink" width="150pt" height="150pt" viewBox="0 0 150 150" version="1.1">
<g id="surface3492117">
<path style=" stroke:none;fill-rule:nonzero;fill:rgb(14.901961%,50.196081%,92.156863%);fill-opacity:1;" d="M 63 9 C 34.804688 9 12 31.804688 12 60 C 12 88.195312 34.804688 111 63 111 C 73.066406 111 82.382812 108.046875 90.28125 103.03125 L 127.125 139.875 L 139.875 127.125 L 103.5 90.84375 C 110.039062 82.265625 114 71.636719 114 60 C 114 31.804688 91.195312 9 63 9 Z M 63 21 C 84.597656 21 102 38.402344 102 60 C 102 81.597656 84.597656 99 63 99 C 41.402344 99 24 81.597656 24 60 C 24 38.402344 41.402344 21 63 21 Z M 63 21 "/>
</g>
</svg>
